PathFileType	4	(X/Y/Z)	/Users/itak/Documents/Research/Walk-IL/dataset/trc/00252_00009.trc
DataRate	CameraRate	NumFrames	NumMarkers	Units	OrigDataRate	OrigDataStartFrame	OrigNumFrames
100.000000	100.000000	4	53	mm	100.000000	120	482
Frame#	Time	RPSI			LPSI			L3			STRN			T10			C7			CLAV			RBAK			LBAK			LSHO			LUPA			LAEL			LAOL			LWTS			LWPS			LFRA			LIFD			LHPS			LHTS			RSHO			RUPA			RAEL			RAOL			RWTS			RWPS			RFRA			RIFD			RHTS			RHPS			RBHD			LFHD			RFHD			LBHD			LHIP			RHIP			RASI			LASI			LKNE			LTHI			LANK			LTIP			LTOE			LMT1			LMT5			LHEE			RKNE			RTHI			RANK			RTIP			RTOE			RMT1			RMT5			RHEE			
		X1	Y1	Z1	X2	Y2	Z2	X3	Y3	Z3	X4	Y4	Z4	X5	Y5	Z5	X6	Y6	Z6	X7	Y7	Z7	X8	Y8	Z8	X9	Y9	Z9	X10	Y10	Z10	X11	Y11	Z11	X12	Y12	Z12	X13	Y13	Z13	X14	Y14	Z14	X15	Y15	Z15	X16	Y16	Z16	X17	Y17	Z17	X18	Y18	Z18	X19	Y19	Z19	X20	Y20	Z20	X21	Y21	Z21	X22	Y22	Z22	X23	Y23	Z23	X24	Y24	Z24	X25	Y25	Z25	X26	Y26	Z26	X27	Y27	Z27	X28	Y28	Z28	X29	Y29	Z29	X30	Y30	Z30	X31	Y31	Z31	X32	Y32	Z32	X33	Y33	Z33	X34	Y34	Z34	X35	Y35	Z35	X36	Y36	Z36	X37	Y37	Z37	X38	Y38	Z38	X39	Y39	Z39	X40	Y40	Z40	X41	Y41	Z41	X42	Y42	Z42	X43	Y43	Z43	X44	Y44	Z44	X45	Y45	Z45	X46	Y46	Z46	X47	Y47	Z47	X48	Y48	Z48	X49	Y49	Z49	X50	Y50	Z50	X51	Y51	Z51	X52	Y52	Z52	X53	Y53	Z53	

121	1.2	-1491.112915039062	1039.219848632812	-322.4708251953125	-1473.303955078125	1045.376708984375	-440.9057922363281	-1478.804809570312	1126.661499023438	-396.6457214355469	-1208.489501953125	1293.711547851562	-363.6603698730469	-1469.136352539062	1252.459838867188	-387.5125732421875	-1384.775512695312	1508.348022460938	-384.3909301757812	-1225.321899414062	1412.788452148438	-365.6207580566406	-1477.57861328125	1375.526977539062	-319.9062194824219	-1396.50341796875	1470.877563476562	-494.8353576660156	-1303.830078125	1465.390258789062	-544.289794921875	-1349.935180664062	1352.844848632812	-623.7011108398438	-1386.7978515625	1150.774658203125	-660.3251342773438	-1457.113525390625	1147.8583984375	-608.2318115234375	-1358.647583007812	898.8347778320312	-628.9039916992188	-1391.714477539062	896.4679565429688	-708.0768432617188	-1394.17919921875	1044.8388671875	-684.9174194335938	-1398.063720703125	717.8069458007812	-646.5067138671875	-1390.033447265625	805.6591796875	-713.275390625	-1342.859008789062	798.4112548828125	-663.3101196289062	-1350.253540039062	1467.930053710938	-208.7497863769531	-1378.769897460938	1404.657836914062	-144.5648956298828	-1407.023803710938	1124.360595703125	-97.08757781982422	-1439.985717773438	1117.604370117188	-186.3342742919922	-1259.924194335938	917.5331420898438	-147.7820281982422	-1310.943115234375	897.9837036132812	-82.22663879394531	-1377.519409179688	1055.535522460938	-85.26049041748047	-1235.453247070312	724.29150390625	-159.8615417480469	-1215.01953125	798.3523559570312	-138.2594299316406	-1266.878173828125	794.346435546875	-85.49872589111328	-1353.28271484375	1657.188110351562	-350.5318908691406	-1130.838256835938	1699.738037109375	-372.9011535644531	-1164.6904296875	1698.293090820312	-278.8685913085938	-1266.2705078125	1664.455688476562	-460.5020751953125	-1348.61181640625	986.8768310546875	-561.9855346679688	-1419.545654296875	990.9967041015625	-199.3686981201172	-1313.709350585938	1030.551513671875	-217.7229309082031	-1260.08251953125	1021.896606445312	-492.5506591796875	-1155.912109375	536.09814453125	-492.3555297851562	-1209.021484375	669.2706298828125	-532.0010986328125	-1134.069091796875	45.47561264038086	-506.158935546875	-1152.700317382812	305.0780639648438	-512.8277587890625	-950.474365234375	101.2514266967773	-404.0003356933594	-1022.26904296875	79.59230804443359	-377.6307067871094	-1009.614196777344	67.81789398193359	-490.7955627441406	-1206.641723632812	41.22655868530273	-472.72119140625	-1452.746948242188	503.0250244140625	-253.3908081054688	-1386.878784179688	761.6962280273438	-194.9171447753906	-1600.685913085938	39.83628082275391	-319.8081970214844	-1464.753662109375	386.29443359375	-280.4320678710938	-1386.272338867188	47.42720794677734	-333.6271057128906	-1434.976806640625	42.31280136108398	-384.6214599609375	-1494.827392578125	41.07139205932617	-278.5068359375	-1655.7509765625	39.90226364135742	-385.3778076171875	
122	1.21	-1485.1474609375	1038.238037109375	-323.3805236816406	-1466.776733398438	1044.355834960938	-441.7121887207031	-1472.63671875	1125.699584960938	-397.3851623535156	-1202.760986328125	1293.024658203125	-363.3370666503906	-1463.146240234375	1251.489501953125	-388.0016479492188	-1379.078002929688	1507.451293945312	-384.4502868652344	-1219.620971679688	1412.080810546875	-365.2889099121094	-1472.023681640625	1374.548828125	-320.3481750488281	-1390.5400390625	1470.068115234375	-494.8464965820312	-1297.809448242188	1464.78173828125	-544.16259765625	-1344.145874023438	1352.524169921875	-623.7733764648438	-1382.177856445312	1150.788452148438	-660.737548828125	-1452.372802734375	1148.095825195312	-608.5106811523438	-1355.5771484375	898.461669921875	-629.8378295898438	-1388.483154296875	896.5468139648438	-708.97607421875	-1390.0537109375	1044.918212890625	-685.4882202148438	-1397.095947265625	718.2576904296875	-647.2755126953125	-1387.666015625	805.6908569335938	-714.2049560546875	-1340.4833984375	797.9126586914062	-664.1766357421875	-1345.100830078125	1467.005615234375	-208.7568969726562	-1373.826049804688	1403.68115234375	-144.6930389404297	-1402.232543945312	1123.312866210938	-97.59293365478516	-1434.8740234375	1116.628295898438	-186.9597015380859	-1254.211059570312	917.1544799804688	-148.2487487792969	-1305.322631835938	897.2439575195312	-82.91658020019531	-1372.526245117188	1054.5341796875	-85.78579711914062	-1229.13232421875	724.14599609375	-160.9143371582031	-1208.710327148438	798.1521606445312	-138.8495483398438	-1260.555419921875	793.8124389648438	-86.40969848632812	-1347.977172851562	1656.361938476562	-350.57177734375	-1125.477783203125	1699.158935546875	-372.2189331054688	-1159.65625	1697.713623046875	-278.2960205078125	-1260.598999023438	1663.677612304688	-460.2426452636719	-1341.389404296875	985.9155883789062	-562.1078491210938	-1414.210571289062	990.1032104492188	-199.9129943847656	-1308.307373046875	1029.702880859375	-217.7389221191406	-1253.244750976562	1021.165954589844	-492.2806701660156	-1149.315063476562	535.099365234375	-492.3642272949219	-1202.340698242188	668.0750122070312	-532.466796875	-1126.065185546875	44.55877304077148	-504.5538940429688	-1145.472412109375	304.0997924804688	-512.0433959960938	-942.647705078125	101.166259765625	-402.585693359375	-1014.408386230469	79.35234069824219	-376.1600341796875	-1001.678833007812	67.252197265625	-489.2239379882812	-1198.655639648438	40.30152893066406	-471.1352233886719	-1448.784301757812	502.65771484375	-253.5386962890625	-1381.84765625	760.9879760742188	-195.1712951660156	-1600.604248046875	40.07690048217773	-319.5690002441406	-1461.738159179688	385.861328125	-280.5297546386719	-1386.308837890625	47.37467575073242	-333.59375	-1434.934692382812	42.44598388671875	-384.4704895019531	-1494.953857421875	40.94873809814453	-278.1619262695312	-1655.775634765625	40.77814483642578	-385.0468444824219	
123	1.22	-1478.994140625	1037.234008789062	-324.407958984375	-1460.028930664062	1043.30810546875	-442.6291198730469	-1466.288818359375	1124.709228515625	-398.22314453125	-1196.9013671875	1292.334106445312	-363.0355529785156	-1457.028076171875	1250.480590820312	-388.5556335449219	-1373.319702148438	1506.540771484375	-384.5587463378906	-1213.824584960938	1411.3916015625	-365.0021057128906	-1466.359985351562	1373.539672851562	-320.8362121582031	-1384.498779296875	1469.234497070312	-494.9064636230469	-1291.707885742188	1464.174194335938	-544.0794677734375	-1338.241088867188	1352.192504882812	-623.8885498046875	-1377.315307617188	1150.758666992188	-661.1608276367188	-1447.420532226562	1148.258422851562	-608.8225708007812	-1352.0576171875	898.0930786132812	-630.6705322265625	-1384.752563476562	896.5510864257812	-709.7616577148438	-1385.6103515625	1044.928100585938	-686.0336303710938	-1395.152465820312	718.635009765625	-647.796875	-1384.72607421875	805.657958984375	-714.97216796875	-1337.481567382812	797.4457397460938	-664.8718872070312	-1339.862182617188	1466.084838867188	-208.8175811767578	-1368.800903320312	1402.7109375	-144.8726196289062	-1397.411010742188	1122.289916992188	-98.12471008300781	-1429.7158203125	1115.671875	-187.6147155761719	-1248.53955078125	916.7366333007812	-148.6567230224609	-1299.765991210938	896.5013427734375	-83.55291748046875	-1367.534423828125	1053.556762695312	-86.32112884521484	-1223.068237304688	724.0209350585938	-161.9709320068359	-1202.548217773438	797.8817138671875	-139.3502502441406	-1254.248779296875	793.2392578125	-87.35231781005859	-1342.608032226562	1655.5302734375	-350.6450500488281	-1120.056518554688	1698.587524414062	-371.5850524902344	-1154.545654296875	1697.142700195312	-277.7708435058594	-1254.871704101562	1662.900390625	-460.0217895507812	-1333.863891601562	984.91552734375	-562.2752685546875	-1408.714233398438	989.1961669921875	-200.5544891357422	-1302.737915039062	1028.860717773438	-217.8046875	-1246.144775390625	1020.430541992188	-492.0321960449219	-1142.72802734375	533.9801635742188	-492.3044738769531	-1195.591430664062	666.7400512695312	-532.9344482421875	-1118.951171875	43.51104354858398	-503.0512390136719	-1138.622192382812	302.9613647460938	-511.2092590332031	-935.554931640625	100.5488662719727	-401.333984375	-1007.313720703125	78.66192626953125	-374.8122863769531	-994.63134765625	66.30147552490234	-487.7958374023438	-1191.602416992188	39.43552398681641	-469.5786437988281	-1444.604125976562	502.3112182617188	-253.7478637695312	-1376.695190429688	760.2994995117188	-195.4617004394531	-1600.519897460938	40.40962219238281	-319.3165893554688	-1458.567260742188	385.4199523925781	-280.62744140625	-1386.356079101562	47.33609008789062	-333.5658874511719	-1434.898803710938	42.59475326538086	-384.3177490234375	-1495.078735351562	40.84352493286133	-277.8310241699219	-1655.809814453125	41.85468673706055	-384.6443481445312	
124	1.23	-1472.651733398438	1036.20654296875	-325.5513916015625	-1453.06103515625	1042.235107421875	-443.6519775390625	-1459.759643554688	1123.685913085938	-399.1604309082031	-1190.895141601562	1291.6455078125	-362.75244140625	-1450.785888671875	1249.429565429688	-389.17529296875	-1367.514404296875	1505.617065429688	-384.725341796875	-1207.935302734375	1410.7255859375	-364.7593383789062	-1460.598022460938	1372.493408203125	-321.3839721679688	-1378.381103515625	1468.3740234375	-495.0251770019531	-1285.52001953125	1463.565551757812	-544.0433349609375	-1332.212646484375	1351.8408203125	-624.0491333007812	-1372.199584960938	1150.671630859375	-661.590087890625	-1442.2412109375	1148.333618164062	-609.1599731445312	-1348.0634765625	897.7127075195312	-631.4020385742188	-1380.517211914062	896.4671630859375	-710.4369506835938	-1380.842041015625	1044.855834960938	-686.5548095703125	-1392.242065429688	718.900634765625	-648.0949096679688	-1381.205078125	805.5438842773438	-715.5875244140625	-1333.869384765625	796.9841918945312	-665.4248046875	-1334.556518554688	1465.168090820312	-208.9422149658203	-1363.71337890625	1401.748046875	-145.1127319335938	-1392.554565429688	1121.29345703125	-98.68080139160156	-1424.51025390625	1114.732177734375	-188.2964477539062	-1242.898193359375	916.2825927734375	-149.0023040771484	-1294.270751953125	895.7586059570312	-84.13014221191406	-1362.541870117188	1052.605346679688	-86.86483001708984	-1217.293334960938	723.9257202148438	-163.0467529296875	-1196.5517578125	797.5344848632812	-139.7614440917969	-1248.010375976562	792.6134643554688	-88.30072021484375	-1337.176879882812	1654.694213867188	-350.7510986328125	-1114.578979492188	1698.025634765625	-370.999755859375	-1149.367797851562	1696.57568359375	-277.2903442382812	-1249.094360351562	1662.129516601562	-459.8404541015625	-1326.049438476562	983.8828735351562	-562.489990234375	-1403.044555664062	988.274169921875	-201.2947998046875	-1296.985107421875	1028.028686523438	-217.9232788085938	-1238.794799804688	1019.6962890625	-491.8124084472656	-1136.1728515625	532.7493286132812	-492.1672973632812	-1188.786376953125	665.270263671875	-533.3799438476562	-1112.775268554688	42.35528945922852	-501.6828918457031	-1132.171020507812	301.6646728515625	-510.3262939453125	-929.2160034179688	99.31063842773438	-400.2529602050781	-1001.007568359375	77.47227478027344	-373.5966796875	-988.5086059570312	64.9156494140625	-486.5243530273438	-1185.533813476562	38.68039703369141	-468.0757751464844	-1440.215698242188	501.9855651855469	-253.9974365234375	-1371.420288085938	759.6301879882812	-195.779052734375	-1600.430786132812	40.84762573242188	-319.0578002929688	-1455.223388671875	384.9759826660156	-280.7185668945312	-1386.40966796875	47.30911254882812	-333.5420837402344	-1434.87060546875	42.7586669921875	-384.1637878417969	-1495.202026367188	40.74845504760742	-277.5296630859375	-1655.84326171875	43.13787078857422	-384.1805419921875	
